<svg xmlns="http://www.w3.org/2000/svg" viewBox="0 0 100 100">
  <defs>
    <radialGradient id="petal" cx="50%" cy="40%" r="65%">
      <stop offset="0%" stop-color="#F4C66B"/>
      <stop offset="55%" stop-color="#E8A33D"/>
      <stop offset="100%" stop-color="#B97A1F"/>
    </radialGradient>
    <radialGradient id="bg" cx="50%" cy="40%" r="70%">
      <stop offset="0%" stop-color="#C72929"/>
      <stop offset="100%" stop-color="#7A1414"/>
    </radialGradient>
  </defs>
  <circle cx="50" cy="50" r="49" fill="url(#bg)"/>
  <g transform="translate(50 50)">
    <g fill="url(#petal)">
      <ellipse cx="0" cy="-30" rx="4" ry="12"/>
      <ellipse cx="0" cy="-30" rx="4" ry="12" transform="rotate(30)"/>
      <ellipse cx="0" cy="-30" rx="4" ry="12" transform="rotate(60)"/>
      <ellipse cx="0" cy="-30" rx="4" ry="12" transform="rotate(90)"/>
      <ellipse cx="0" cy="-30" rx="4" ry="12" transform="rotate(120)"/>
      <ellipse cx="0" cy="-30" rx="4" ry="12" transform="rotate(150)"/>
      <ellipse cx="0" cy="-30" rx="4" ry="12" transform="rotate(180)"/>
      <ellipse cx="0" cy="-30" rx="4" ry="12" transform="rotate(210)"/>
      <ellipse cx="0" cy="-30" rx="4" ry="12" transform="rotate(240)"/>
      <ellipse cx="0" cy="-30" rx="4" ry="12" transform="rotate(270)"/>
      <ellipse cx="0" cy="-30" rx="4" ry="12" transform="rotate(300)"/>
      <ellipse cx="0" cy="-30" rx="4" ry="12" transform="rotate(330)"/>
    </g>
    <g fill="#FBE3A7" opacity="0.85">
      <ellipse cx="0" cy="-22" rx="1.8" ry="5" transform="rotate(15)"/>
      <ellipse cx="0" cy="-22" rx="1.8" ry="5" transform="rotate(45)"/>
      <ellipse cx="0" cy="-22" rx="1.8" ry="5" transform="rotate(75)"/>
      <ellipse cx="0" cy="-22" rx="1.8" ry="5" transform="rotate(105)"/>
      <ellipse cx="0" cy="-22" rx="1.8" ry="5" transform="rotate(135)"/>
      <ellipse cx="0" cy="-22" rx="1.8" ry="5" transform="rotate(165)"/>
      <ellipse cx="0" cy="-22" rx="1.8" ry="5" transform="rotate(195)"/>
      <ellipse cx="0" cy="-22" rx="1.8" ry="5" transform="rotate(225)"/>
      <ellipse cx="0" cy="-22" rx="1.8" ry="5" transform="rotate(255)"/>
      <ellipse cx="0" cy="-22" rx="1.8" ry="5" transform="rotate(285)"/>
      <ellipse cx="0" cy="-22" rx="1.8" ry="5" transform="rotate(315)"/>
      <ellipse cx="0" cy="-22" rx="1.8" ry="5" transform="rotate(345)"/>
    </g>
    <circle r="15" fill="#FFF8E7"/>
    <circle r="15" fill="none" stroke="#B22222" stroke-width="0.8" opacity="0.35"/>
    <g fill="#B22222">
      <circle cx="-5" cy="-5" r="2.6"/>
      <path d="M -9 6 L -9 0.5 Q -9 -2.5 -5 -2.5 Q -1 -2.5 -1 0.5 L -1 6 Z"/>
      <circle cx="5" cy="-5" r="2.6"/>
      <path d="M 1 6 L 1 0.5 Q 1 -2.5 5 -2.5 Q 9 -2.5 9 0.5 L 9 6 Z"/>
    </g>
    <g fill="#E8A33D">
      <circle cx="0" cy="-9" r="0.9"/>
      <circle cx="-1.6" cy="-9.6" r="0.5" opacity="0.7"/>
      <circle cx="1.6" cy="-9.6" r="0.5" opacity="0.7"/>
    </g>
  </g>
</svg>
